<svg viewBox="0 0 760 420" xmlns="http://www.w3.org/2000/svg" font-family="-apple-system, Helvetica, Arial, sans-serif">
<rect width="760" height="420" fill="#ffffff"/>
<text x="380.0" y="18" font-size="14" fill="#222" text-anchor="middle" font-weight="600">episode/flags (cumulative level completions) vs. env steps &#8212; "trial"</text>
<line x1="60" y1="370.0" x2="740" y2="370.0" stroke="#e2e2e2" stroke-width="1"/>
<text x="50" y="374.0" font-size="12" fill="#555" text-anchor="end">0</text>
<line x1="60" y1="296.8" x2="740" y2="296.8" stroke="#e2e2e2" stroke-width="1"/>
<text x="50" y="300.8" font-size="12" fill="#555" text-anchor="end">500</text>
<line x1="60" y1="223.6" x2="740" y2="223.6" stroke="#e2e2e2" stroke-width="1"/>
<text x="50" y="227.6" font-size="12" fill="#555" text-anchor="end">1000</text>
<line x1="60" y1="150.3" x2="740" y2="150.3" stroke="#e2e2e2" stroke-width="1"/>
<text x="50" y="154.3" font-size="12" fill="#555" text-anchor="end">1500</text>
<line x1="60" y1="77.1" x2="740" y2="77.1" stroke="#e2e2e2" stroke-width="1"/>
<text x="50" y="81.1" font-size="12" fill="#555" text-anchor="end">2000</text>
<line x1="60" y1="20.0" x2="740" y2="20.0" stroke="#e2e2e2" stroke-width="1"/>
<text x="50" y="24.0" font-size="12" fill="#555" text-anchor="end">2390</text>
<line x1="60.0" y1="20" x2="60.0" y2="370" stroke="#f0f0f0" stroke-width="1"/>
<text x="60.0" y="390" font-size="12" fill="#555" text-anchor="middle">0</text>
<line x1="195.9" y1="20" x2="195.9" y2="370" stroke="#f0f0f0" stroke-width="1"/>
<text x="195.9" y="390" font-size="12" fill="#555" text-anchor="middle">200k</text>
<line x1="331.9" y1="20" x2="331.9" y2="370" stroke="#f0f0f0" stroke-width="1"/>
<text x="331.9" y="390" font-size="12" fill="#555" text-anchor="middle">400k</text>
<line x1="467.8" y1="20" x2="467.8" y2="370" stroke="#f0f0f0" stroke-width="1"/>
<text x="467.8" y="390" font-size="12" fill="#555" text-anchor="middle">600k</text>
<line x1="603.8" y1="20" x2="603.8" y2="370" stroke="#f0f0f0" stroke-width="1"/>
<text x="603.8" y="390" font-size="12" fill="#555" text-anchor="middle">800k</text>
<line x1="739.7" y1="20" x2="739.7" y2="370" stroke="#f0f0f0" stroke-width="1"/>
<text x="739.7" y="390" font-size="12" fill="#555" text-anchor="middle">1000k</text>

<line x1="60" y1="20" x2="60" y2="370" stroke="#888" stroke-width="1.5"/>
<line x1="60" y1="370" x2="740" y2="370" stroke="#888" stroke-width="1.5"/>
<path d="M 60.3,370.0 L 64.8,370.0 L 69.2,370.0 L 73.9,370.0 L 78.4,370.0 L 82.8,370.0 L 87.5,370.0 L 91.9,370.0 L 96.4,370.0 L 101.1,370.0 L 105.5,370.0 L 110.0,370.0 L 114.7,370.0 L 119.1,370.0 L 123.6,370.0 L 128.3,370.0 L 132.7,370.0 L 137.1,370.0 L 141.9,370.0 L 146.3,370.0 L 150.7,370.0 L 155.5,370.0 L 159.9,370.0 L 164.3,369.7 L 169.1,369.4 L 173.5,369.4 L 177.9,369.1 L 182.7,368.7 L 187.1,368.4 L 191.5,368.1 L 196.3,367.4 L 200.7,367.4 L 205.1,366.8 L 209.9,366.0 L 214.3,365.3 L 218.7,364.6 L 223.5,363.4 L 227.9,362.2 L 232.3,361.7 L 237.1,360.9 L 241.5,359.7 L 245.9,358.3 L 250.7,356.7 L 255.1,354.3 L 259.5,351.8 L 264.2,349.8 L 268.7,347.6 L 273.1,345.5 L 277.8,343.3 L 282.3,341.0 L 286.7,338.4 L 291.4,335.6 L 295.9,332.8 L 300.3,330.0 L 305.0,326.8 L 309.4,324.0 L 313.9,320.9 L 318.6,318.2 L 323.0,315.5 L 327.5,312.4 L 332.2,309.2 L 336.6,306.2 L 341.1,303.1 L 345.8,300.0 L 350.2,296.9 L 354.6,294.1 L 359.4,290.8 L 363.8,288.0 L 368.2,285.1 L 373.0,281.8 L 377.4,279.1 L 381.8,276.1 L 386.6,272.8 L 391.0,269.8 L 395.4,266.8 L 400.2,263.5 L 404.6,262.7 L 409.0,259.4 L 413.8,256.1 L 418.2,253.0 L 422.6,249.8 L 427.4,246.4 L 431.8,243.8 L 436.2,240.5 L 441.0,237.3 L 445.4,234.2 L 449.8,231.2 L 454.6,227.8 L 459.0,224.6 L 463.4,221.4 L 468.2,218.0 L 472.6,214.6 L 477.0,211.8 L 481.8,208.3 L 486.2,205.3 L 490.6,202.2 L 495.3,198.8 L 499.8,195.6 L 504.2,192.5 L 508.9,189.1 L 513.4,186.1 L 517.8,182.7 L 522.5,179.5 L 527.0,176.3 L 531.4,173.2 L 536.1,169.7 L 540.5,166.4 L 545.0,163.4 L 549.7,159.9 L 554.1,156.6 L 558.6,153.6 L 563.3,150.0 L 567.7,147.0 L 572.2,143.6 L 576.9,139.9 L 581.3,136.7 L 585.7,133.3 L 590.5,129.8 L 594.9,126.8 L 599.3,123.5 L 604.1,120.0 L 608.5,117.7 L 612.9,114.5 L 617.7,111.1 L 622.1,107.9 L 626.5,104.5 L 631.3,100.8 L 635.7,97.5 L 640.1,94.2 L 644.9,90.7 L 649.3,87.4 L 653.7,84.1 L 658.5,80.6 L 662.9,77.4 L 667.3,74.2 L 672.1,70.7 L 676.5,67.4 L 680.9,64.1 L 685.7,60.4 L 690.1,57.2 L 694.5,54.0 L 699.3,50.5 L 703.7,47.2 L 708.1,43.9 L 712.8,40.4 L 717.3,37.1 L 721.7,33.8 L 726.4,30.1 L 730.9,26.7 L 735.3,23.2 L 739.7,20.0" fill="none" stroke="#4c78a8" stroke-width="2.5"/>
<path d="M 60.3,370.0 L 64.9,370.0 L 69.4,370.0 L 73.9,370.0 L 78.4,370.0 L 83.0,370.0 L 87.5,370.0 L 92.0,370.0 L 96.5,370.0 L 101.1,370.0 L 105.6,370.0 L 110.1,370.0 L 114.6,370.0 L 119.2,370.0 L 123.7,370.0 L 128.2,370.0 L 132.7,370.0 L 137.3,370.0 L 141.8,370.0 L 146.3,370.0 L 150.8,370.0 L 155.4,370.0 L 159.9,369.9 L 164.4,369.7 L 168.9,369.7 L 173.4,369.7 L 178.0,369.7 L 182.5,369.7 L 187.0,369.7 L 191.5,369.7 L 196.1,369.7 L 200.6,369.7 L 205.1,369.7 L 209.6,369.7 L 214.2,369.7 L 218.7,369.7 L 223.2,369.7 L 227.7,369.7 L 232.6,369.7 L 237.1,369.6 L 241.7,369.6 L 246.2,369.6 L 250.7,369.6 L 255.2,369.6 L 259.8,369.6 L 264.3,369.6 L 268.8,369.4 L 273.3,369.4 L 277.9,369.4 L 282.4,369.4 L 286.9,369.4 L 291.4,369.4 L 295.9,369.4 L 300.5,369.4 L 305.0,369.4 L 309.5,369.4 L 314.0,369.4 L 318.6,369.4 L 323.1,369.4 L 327.6,369.4 L 332.1,369.4 L 336.7,369.4 L 341.2,369.4 L 345.7,369.3 L 350.2,369.3 L 354.8,369.1 L 359.3,369.1 L 363.8,369.1 L 368.3,369.1 L 372.9,369.1 L 377.4,369.1 L 381.9,369.1 L 386.4,369.1 L 391.0,369.1 L 395.5,369.1 L 400.3,369.1 L 404.9,369.1 L 409.4,369.1 L 413.9,369.1 L 418.4,369.1 L 423.0,369.1 L 427.5,369.1 L 432.0,369.1 L 436.5,369.1 L 441.1,369.1 L 445.6,369.1 L 450.1,369.1 L 454.6,369.1 L 459.2,369.1 L 463.7,369.1 L 468.2,369.1 L 472.7,369.1 L 477.3,369.1 L 481.8,369.1 L 486.3,369.1 L 490.8,369.1 L 495.4,369.1 L 499.9,369.1 L 504.4,369.1 L 508.9,369.1 L 513.4,369.1 L 518.0,369.1 L 522.5,369.1 L 527.0,369.1 L 531.5,369.1 L 536.1,369.1 L 540.6,369.1 L 545.1,369.1 L 549.6,369.1 L 554.2,369.1 L 558.7,369.1 L 563.2,369.1 L 567.7,369.1 L 572.6,369.1 L 577.1,369.1 L 581.7,369.1 L 586.2,369.1 L 590.7,369.1 L 595.2,369.1 L 599.8,369.1 L 604.3,369.1 L 608.8,369.1 L 613.3,369.1 L 617.9,369.1 L 622.4,369.1 L 626.9,369.1 L 631.4,369.1 L 635.9,369.1 L 640.5,369.1 L 645.0,369.1 L 649.5,369.1 L 654.0,369.1 L 658.6,369.1 L 663.1,369.1 L 667.6,369.1 L 672.1,369.1 L 676.7,369.1 L 681.2,369.1 L 685.7,369.1 L 690.2,369.1 L 694.8,369.1 L 699.3,369.1 L 703.8,369.1 L 708.3,369.1 L 712.9,369.1 L 717.4,369.1 L 721.9,369.1 L 726.4,369.1 L 731.0,369.0 L 735.5,369.0 L 740.0,368.8" fill="none" stroke="#e45756" stroke-width="2.5"/>
<circle cx="739.7" cy="20.0" r="3.5" fill="#4c78a8"/>
<circle cx="740.0" cy="368.8" r="3.5" fill="#e45756"/>
<text x="732" y="38" font-size="12" fill="#4c78a8" text-anchor="end" font-weight="600">Dreamer: 2,390 flags</text>
<text x="732" y="56" font-size="12" fill="#e45756" text-anchor="end" font-weight="600">PPO (ent_coef=0.05): 8 flags</text>
<text x="400.0" y="412" font-size="12" fill="#555" text-anchor="middle">env steps</text>
</svg>